<?xml version="1.0" encoding="utf-8"?>
<svg version="1.1" id="Layer_1" xmlns="http://www.w3.org/2000/svg" xmlns:xlink="http://www.w3.org/1999/xlink" x="0px" y="0px"
	 viewBox="0 0 405.04 214.93" style="enable-background:new 0 0 405.04 214.93;" xml:space="preserve">
<style type="text/css">
	.st0{fill:#F26C57;}
	.st1{fill:#434345;}
</style>
<polygon class="st0" points="214.09,89.66 243.61,89.66 262.42,70.83 243.6,52.01 214.08,52.01 232.91,70.83 "/>
<polygon class="st1" points="196.33,97.14 190.17,103.3 157.69,70.82 190.16,38.36 196.32,44.52 228.87,44.5 190.15,5.79 
	125.13,70.82 190.17,135.86 228.9,97.15 "/>
<g>
	<path class="st1" d="M14.03,161.84h7.07v40.37h-7.07V161.84z"/>
	<path class="st1" d="M29.46,161.84h7.47l18.43,29.74h0.11v-29.74h6.73v40.37h-7.46l-18.38-29.68h-0.17v29.68h-6.73V161.84z"/>
	<path class="st1" d="M70.57,161.84h19.62c3.62,0,6.52,0.83,8.71,2.49c2.19,1.66,3.28,4.16,3.28,7.52c0,2.04-0.5,3.78-1.5,5.23
		c-1,1.45-2.42,2.57-4.27,3.36v0.11c2.49,0.53,4.37,1.71,5.65,3.53c1.28,1.83,1.92,4.12,1.92,6.87c0,1.58-0.28,3.06-0.85,4.44
		c-0.57,1.38-1.45,2.56-2.66,3.56c-1.21,1-2.75,1.79-4.64,2.37c-1.89,0.59-4.13,0.88-6.73,0.88H70.57V161.84z M77.64,178.74h11.54
		c1.7,0,3.11-0.48,4.24-1.44c1.13-0.96,1.7-2.35,1.7-4.16c0-2.04-0.51-3.47-1.53-4.3c-1.02-0.83-2.49-1.24-4.41-1.24H77.64V178.74z
		 M77.64,196.44h12.5c2.15,0,3.82-0.56,5-1.67c1.19-1.11,1.78-2.69,1.78-4.72c0-2-0.59-3.54-1.78-4.61c-1.19-1.07-2.86-1.61-5-1.61
		h-12.5V196.44z"/>
	<path class="st1" d="M127.57,160.87c3.02,0,5.72,0.57,8.11,1.7c2.39,1.13,4.42,2.66,6.08,4.58c1.66,1.92,2.93,4.16,3.82,6.73
		c0.88,2.56,1.33,5.28,1.33,8.14c0,2.9-0.44,5.64-1.33,8.2c-0.89,2.56-2.16,4.81-3.82,6.73c-1.66,1.92-3.69,3.44-6.08,4.55
		c-2.39,1.11-5.1,1.67-8.11,1.67c-3.02,0-5.72-0.56-8.12-1.67c-2.39-1.11-4.42-2.63-6.08-4.55c-1.66-1.92-2.93-4.16-3.82-6.73
		c-0.89-2.56-1.33-5.3-1.33-8.2c0-2.86,0.44-5.58,1.33-8.14c0.88-2.56,2.16-4.81,3.82-6.73c1.66-1.92,3.68-3.45,6.08-4.58
		C121.84,161.44,124.55,160.87,127.57,160.87z M127.57,166.64c-2.15,0-4.01,0.43-5.57,1.3c-1.57,0.87-2.84,2.03-3.82,3.48
		c-0.98,1.45-1.71,3.1-2.18,4.95c-0.47,1.85-0.71,3.73-0.71,5.65c0,1.92,0.23,3.81,0.71,5.65c0.47,1.85,1.19,3.5,2.18,4.95
		c0.98,1.45,2.25,2.61,3.82,3.48c1.56,0.87,3.42,1.3,5.57,1.3c2.15,0,4-0.43,5.57-1.3c1.56-0.87,2.84-2.03,3.82-3.48
		c0.98-1.45,1.71-3.1,2.18-4.95c0.47-1.85,0.71-3.73,0.71-5.65c0-1.92-0.23-3.81-0.71-5.65c-0.47-1.85-1.2-3.5-2.18-4.95
		c-0.98-1.45-2.25-2.61-3.82-3.48C131.57,167.07,129.71,166.64,127.57,166.64z"/>
	<path class="st1" d="M152.89,161.84h7.07v23.52c0,1.36,0.06,2.73,0.2,4.13c0.13,1.39,0.51,2.65,1.13,3.76
		c0.62,1.11,1.56,2.03,2.83,2.74c1.26,0.72,3.04,1.08,5.34,1.08c2.3,0,4.08-0.36,5.34-1.08c1.26-0.71,2.21-1.63,2.83-2.74
		c0.62-1.11,1-2.37,1.13-3.76c0.13-1.39,0.2-2.77,0.2-4.13v-23.52h7.07v25.84c0,2.6-0.4,4.86-1.19,6.78
		c-0.79,1.92-1.91,3.53-3.36,4.83c-1.45,1.3-3.2,2.27-5.23,2.91c-2.04,0.64-4.3,0.96-6.79,0.96c-2.49,0-4.75-0.32-6.78-0.96
		c-2.04-0.64-3.78-1.61-5.23-2.91c-1.45-1.3-2.57-2.91-3.36-4.83c-0.79-1.92-1.19-4.18-1.19-6.78V161.84z"/>
	<path class="st1" d="M193.89,161.84h7.46l18.43,29.74h0.11v-29.74h6.73v40.37h-7.46l-18.38-29.68h-0.17v29.68h-6.73V161.84z"/>
	<path class="st1" d="M234.99,161.84h16.74c3.09,0,5.77,0.53,8.03,1.58c2.26,1.06,4.11,2.5,5.54,4.33c1.43,1.83,2.5,3.97,3.19,6.42
		c0.7,2.45,1.04,5.07,1.04,7.86c0,2.79-0.35,5.41-1.04,7.86c-0.7,2.45-1.76,4.59-3.19,6.42c-1.43,1.83-3.28,3.27-5.54,4.33
		c-2.26,1.05-4.94,1.58-8.03,1.58h-16.74V161.84z M242.06,196.44h6.96c2.75,0,5.01-0.37,6.76-1.1c1.75-0.73,3.12-1.75,4.13-3.05
		c1-1.3,1.68-2.83,2.03-4.58c0.36-1.75,0.54-3.65,0.54-5.68c0-2.04-0.18-3.93-0.54-5.68c-0.36-1.75-1.04-3.28-2.03-4.58
		c-1-1.3-2.38-2.32-4.13-3.05c-1.75-0.74-4.01-1.1-6.76-1.1h-6.96V196.44z"/>
</g>
<g>
	<path class="st1" d="M304.9,169.89c-0.77-1.23-1.71-2.25-2.83-3.08c-1.11-0.83-2.34-1.46-3.68-1.89c-1.34-0.43-2.74-0.65-4.22-0.65
		c-2.68,0-4.97,0.51-6.9,1.53c-1.92,1.02-3.5,2.37-4.72,4.04c-1.22,1.68-2.13,3.57-2.71,5.68c-0.58,2.11-0.88,4.28-0.88,6.5
		c0,2.19,0.29,4.34,0.88,6.47c0.59,2.13,1.49,4.03,2.71,5.71c1.23,1.68,2.8,3.03,4.72,4.04c1.92,1.02,4.22,1.53,6.9,1.53
		c1.89,0,3.58-0.34,5.09-1.02c1.51-0.68,2.81-1.6,3.9-2.77c1.1-1.17,1.98-2.53,2.66-4.1c0.68-1.57,1.11-3.25,1.3-5.06h3.84
		c-0.27,2.49-0.85,4.73-1.75,6.73c-0.9,2-2.08,3.7-3.5,5.09c-1.44,1.4-3.12,2.47-5.06,3.22c-1.94,0.75-4.1,1.13-6.47,1.13
		c-3.16,0-5.95-0.57-8.34-1.72c-2.4-1.15-4.39-2.69-5.97-4.61c-1.58-1.92-2.77-4.15-3.56-6.67c-0.79-2.53-1.19-5.18-1.19-7.97
		c0-2.79,0.4-5.45,1.19-7.97c0.79-2.52,1.98-4.76,3.56-6.7s3.57-3.49,5.97-4.64c2.39-1.15,5.17-1.73,8.34-1.73
		c1.92,0,3.8,0.28,5.63,0.85c1.83,0.56,3.48,1.4,4.98,2.52c1.49,1.11,2.73,2.48,3.73,4.1c1,1.62,1.63,3.49,1.89,5.6h-3.84
		C306.23,172.5,305.67,171.12,304.9,169.89z"/>
	<path class="st1" d="M336.19,161.84c1.81,0,3.45,0.25,4.92,0.76c1.47,0.51,2.73,1.26,3.79,2.26c1.05,1,1.87,2.21,2.44,3.65
		c0.56,1.43,0.84,3.05,0.84,4.86c0,1.81-0.28,3.43-0.84,4.86c-0.57,1.43-1.38,2.65-2.44,3.65c-1.05,1-2.32,1.75-3.79,2.26
		c-1.47,0.51-3.11,0.76-4.92,0.76h-14.08v17.3h-3.84v-40.37H336.19z M335.35,181.62c2.67,0,4.84-0.68,6.5-2.04
		c1.65-1.36,2.49-3.43,2.49-6.22c0-2.79-0.83-4.86-2.49-6.22c-1.66-1.36-3.83-2.04-6.5-2.04h-13.24v16.51H335.35z"/>
	<path class="st1" d="M359.15,161.84v17.53h23.97v-17.53h3.85v40.37h-3.85v-19.56h-23.97v19.56h-3.84v-40.37H359.15z"/>
</g>
</svg>