<svg xmlns="http://www.w3.org/2000/svg" viewBox="0 0 512 512" width="20" height="20">
  <circle cx="256" cy="256" r="256" fill="#0A66C2"/>
  <path d="M256 0c141.385 0 256 114.615 256 256S397.385 512 256 512 0 397.385 0 256 114.615 0 256 0z" fill="#0A66C2"/>
  <path d="M184.32 377.6h-57.6V199.04h57.6V377.6zM155.52 176c-18.432 0-33.28-15.36-33.28-33.28 0-18.432 15.36-33.28 33.28-33.28 18.432 0 33.28 15.36 33.28 33.28 0 18.432-14.848 33.28-33.28 33.28zM384 377.6h-57.088v-89.6c0-21.504-.384-49.152-29.952-49.152-29.952 0-34.56 23.424-34.56 47.552V377.6H205.12V199.04h55.04v25.088h.768c7.68-14.592 26.624-29.952 54.784-29.952 58.624 0 69.376 38.656 69.376 88.832V377.6H384z" fill="#fff"/>
</svg>